<?xml version="1.0" encoding="UTF-8" standalone="no"?>
<svg
   xmlns:dc="http://purl.org/dc/elements/1.1/"
   xmlns:cc="http://creativecommons.org/ns#"
   xmlns:rdf="http://www.w3.org/1999/02/22-rdf-syntax-ns#"
   xmlns:svg="http://www.w3.org/2000/svg"
   xmlns="http://www.w3.org/2000/svg"
   xmlns:sodipodi="http://sodipodi.sourceforge.net/DTD/sodipodi-0.dtd"
   xmlns:inkscape="http://www.inkscape.org/namespaces/inkscape"
   viewBox="0.0 0.0 348.0 348.0"
   fill="none"
   version="1.1"
   id="svg849"
   sodipodi:docname="Starmap Reconstruction.svg"
   inkscape:version="1.0.1 (3bc2e813f5, 2020-09-07)">
  <metadata
     id="metadata855">
    <rdf:RDF>
      <cc:Work
         rdf:about="">
        <dc:format>image/svg+xml</dc:format>
        <dc:type
           rdf:resource="http://purl.org/dc/dcmitype/StillImage" />
      </cc:Work>
    </rdf:RDF>
  </metadata>
  <defs
     id="defs853" />
  <sodipodi:namedview
     pagecolor="#ffffff"
     bordercolor="#666666"
     borderopacity="1"
     objecttolerance="10"
     gridtolerance="10"
     guidetolerance="10"
     inkscape:pageopacity="0"
     inkscape:pageshadow="2"
     inkscape:window-width="1858"
     inkscape:window-height="1057"
     id="namedview851"
     showgrid="false"
     inkscape:snap-bbox="true"
     inkscape:bbox-paths="true"
     inkscape:bbox-nodes="true"
     inkscape:snap-bbox-edge-midpoints="true"
     inkscape:snap-bbox-midpoints="true"
     inkscape:object-paths="true"
     inkscape:snap-intersection-paths="true"
     inkscape:snap-smooth-nodes="true"
     inkscape:snap-midpoints="true"
     inkscape:snap-object-midpoints="true"
     inkscape:snap-center="true"
     inkscape:snap-text-baseline="true"
     inkscape:snap-page="true"
     inkscape:zoom="1.2974138"
     inkscape:cx="73.422837"
     inkscape:cy="199.74629"
     inkscape:window-x="54"
     inkscape:window-y="-8"
     inkscape:window-maximized="1"
     inkscape:current-layer="svg849" />
  <path
     d="M5.079 5.776h336.913v337.67H5.08z"
     stroke-width="2"
     stroke="#000"
     id="path845"
     style="stroke-width:4;stroke-miterlimit:4;stroke-dasharray:none" />
  <path
     d="M282.734 40.554c0-8.376 6.966-15.165 15.56-15.165 4.126 0 8.084 1.597 11.001 4.441 2.918 2.844 4.558 6.702 4.558 10.724 0 8.376-6.966 15.165-15.56 15.165-8.593 0-15.559-6.79-15.559-15.165z"
     stroke-width="2"
     stroke="#000"
     id="path847"
     style="stroke-width:4;stroke-miterlimit:4;stroke-dasharray:none" />
  <circle
     style="fill:none;stroke-width:4;stroke-linecap:round;stroke-linejoin:round;stroke:#000000;stroke-opacity:1;stroke-miterlimit:4;stroke-dasharray:none"
     id="path871"
     cx="135.54848"
     cy="214.12381"
     r="102.84774" />
  <circle
     style="fill:none;fill-opacity:1;stroke:#000000;stroke-width:4.19942;stroke-linecap:round;stroke-linejoin:round;stroke-miterlimit:4;stroke-dasharray:none;stroke-opacity:1"
     id="path873"
     cx="270.04736"
     cy="135.65147"
     r="24.275705" />
  <circle
     style="fill:none;fill-opacity:1;stroke:#000000;stroke-width:4.19942;stroke-linecap:round;stroke-linejoin:round;stroke-miterlimit:4;stroke-dasharray:none;stroke-opacity:1"
     id="path873-6"
     cx="270.04736"
     cy="292.11658"
     r="24.275705" />
  <rect
     style="fill:none;fill-opacity:1;stroke:#000000;stroke-width:3.99775;stroke-linecap:round;stroke-linejoin:round;stroke-miterlimit:4;stroke-dasharray:none;stroke-opacity:1"
     id="rect890"
     width="153.19162"
     height="56.942451"
     x="59.444057"
     y="40.849373"
     ry="0" />
  <g
     aria-label="✘"
     id="text920"
     style="font-style:normal;font-variant:normal;font-weight:normal;font-stretch:normal;font-size:32px;line-height:1.25;font-family:'Wheaton RS';-inkscape-font-specification:'Wheaton RS, Normal';font-variant-ligatures:normal;font-variant-caps:normal;font-variant-numeric:normal;font-variant-east-asian:normal">
    <path
       d="m 279.20111,127.77838 q 0.25,0.25 0,0.5 l -0.375,0.375 v 0.375 q -2.5,2.625 -6.875,7.875 2.625,3.625 4.5,5.5 0.375,0.375 0.125,0.75 -0.25,0.625 -0.625,1 -0.125,0.25 -0.375,0.25 -0.375,0 -0.5,0.25 -0.125,0.25 0,0.5 -0.25,0.5 -0.625,0.75 -0.25,0.375 -0.625,0.125 -0.125,-0.125 -0.25,-0.375 -0.125,-0.25 -0.5,0 -0.5,0.5 -0.75,0.75 -0.5,0.375 -0.875,0 -0.625,-0.625 -3.375,-4.75 -3.125,4 -4.5,6.125 -0.5,0.75 -0.875,0.5 -0.125,-0.125 -0.375,-0.375 -0.25,-0.375 -0.125,-0.625 0.125,-0.125 0,-0.25 -0.125,0 -0.25,0 -0.375,0.125 -0.625,0.25 -0.875,-0.875 -1,-1.125 -0.375,-0.375 -0.125,-0.75 0.375,-0.375 0.125,-1 -0.25,-0.375 -0.375,-0.875 2,-2.625 5.375,-6.5 -3,-5.125 -3.875,-8.125 0.75,-0.875 1.25,-1.5 0.25,0.375 0.375,0.375 0.25,0.125 0.375,0.125 0.25,0 0.25,-0.25 0.125,-0.875 0.875,-1 0.375,0 0.625,0.375 1.875,3.125 3.875,5.875 4.5,-4.875 7.5,-7.625 l 1.125,1 q -0.125,0.25 -0.125,0.375 0,0.25 0.25,0.375 0.125,0.125 0.75,0 0.5,0.5 0.625,0.75 z"
       style="font-style:normal;font-variant:normal;font-weight:normal;font-stretch:normal;font-size:32px;font-family:'Wheaton RS';-inkscape-font-specification:'Wheaton RS, Normal';font-variant-ligatures:normal;font-variant-caps:normal;font-variant-numeric:normal;font-variant-east-asian:normal;fill:#000000;fill-opacity:1"
       id="path940" />
  </g>
  <g
     aria-label="✓"
     id="text920-2"
     style="font-style:normal;font-variant:normal;font-weight:normal;font-stretch:normal;font-size:32px;line-height:1.25;font-family:'Wheaton RS';-inkscape-font-specification:'Wheaton RS, Normal';font-variant-ligatures:normal;font-variant-caps:normal;font-variant-numeric:normal;font-variant-east-asian:normal">
    <path
       d="m 259.0533,297.95847 q 0,-0.5 -0.125,-0.875 0,-1.125 1.5,-2 1,-0.5 1.5,-0.5 0.625,0.125 0.875,0.75 0.75,1.75 1,2.375 0.25,0.5 0.5,0.5 0.25,0 0.5,-0.375 4.25,-7.5 7.625,-11.625 2.625,-3.125 3.25,-3.625 2,-1.5 4.75,-1.625 l 0.125,0.625 q -2.125,2.125 -7.375,9.5 -5.125,7.375 -7.375,11.625 -0.5,1.125 -1.25,1.375 -0.375,0.375 -1.625,0.25 -0.875,0.125 -1.25,-0.25 -0.375,-0.25 -0.75,-1 -1.25,-3 -1.875,-5.125 z"
       style="font-style:normal;font-variant:normal;font-weight:normal;font-stretch:normal;font-size:32px;font-family:'Wheaton RS';-inkscape-font-specification:'Wheaton RS, Normal';font-variant-ligatures:normal;font-variant-caps:normal;font-variant-numeric:normal;font-variant-east-asian:normal;fill:#000000;fill-opacity:1"
       id="path943" />
  </g>
</svg>
