<?xml version="1.0" encoding="UTF-8" standalone="no"?>
<svg
   xmlns:dc="http://purl.org/dc/elements/1.1/"
   xmlns:cc="http://creativecommons.org/ns#"
   xmlns:rdf="http://www.w3.org/1999/02/22-rdf-syntax-ns#"
   xmlns:svg="http://www.w3.org/2000/svg"
   xmlns="http://www.w3.org/2000/svg"
   xmlns:sodipodi="http://sodipodi.sourceforge.net/DTD/sodipodi-0.dtd"
   xmlns:inkscape="http://www.inkscape.org/namespaces/inkscape"
   version="1.1"
   id="Capa_1"
   x="0px"
   y="0px"
   viewBox="0 0 31.999999 31.999999"
   xml:space="preserve"
   sodipodi:docname="Aristocracy.svg"
   width="32"
   height="32"
   inkscape:version="1.0.1 (3bc2e813f5, 2020-09-07)"><metadata
   id="metadata1590"><rdf:RDF><cc:Work
       rdf:about=""><dc:format>image/svg+xml</dc:format><dc:type
         rdf:resource="http://purl.org/dc/dcmitype/StillImage" /><dc:title></dc:title></cc:Work></rdf:RDF></metadata><defs
   id="defs1588" /><sodipodi:namedview
   pagecolor="#ffffff"
   bordercolor="#666666"
   borderopacity="1"
   objecttolerance="10"
   gridtolerance="10"
   guidetolerance="10"
   inkscape:pageopacity="0"
   inkscape:pageshadow="2"
   inkscape:window-width="1858"
   inkscape:window-height="1057"
   id="namedview1586"
   showgrid="false"
   inkscape:snap-bbox="true"
   inkscape:bbox-paths="true"
   inkscape:bbox-nodes="true"
   inkscape:snap-bbox-edge-midpoints="true"
   inkscape:snap-bbox-midpoints="true"
   inkscape:object-paths="true"
   inkscape:snap-intersection-paths="true"
   inkscape:snap-smooth-nodes="true"
   inkscape:snap-midpoints="true"
   inkscape:snap-object-midpoints="true"
   inkscape:snap-center="true"
   inkscape:snap-text-baseline="true"
   inkscape:snap-page="true"
   inkscape:zoom="9.4326881"
   inkscape:cx="20.343451"
   inkscape:cy="25.887365"
   inkscape:window-x="54"
   inkscape:window-y="-8"
   inkscape:window-maximized="1"
   inkscape:current-layer="Capa_1" />
<g
   id="g1553"
   transform="scale(0.33242954)">
	<path
   d="m 79.34,45.051 c 3.503,-4.197 5.57,-9.918 5.57,-16.019 0,-12.607 -8.761,-22.864 -19.529,-22.864 -7.47,0 -13.968,4.939 -17.25,12.172 -3.282,-7.233 -9.78,-12.172 -17.25,-12.172 -10.769,0 -19.529,10.257 -19.529,22.864 0,6.115 2.065,11.827 5.569,16.018 C 10.796,47.93 0,53.331 0,69.592 v 6 h 6 12.421 c -0.737,2.447 -1.173,5.255 -1.173,8.501 v 6 h 6 24.704 0.353 24.704 6 v -6 c 0,-3.246 -0.436,-6.054 -1.173,-8.501 h 12.425 6 v -6 C 96.261,53.332 85.465,47.931 79.34,45.051 Z M 21.221,69.592 H 6 C 6,51.525 21.867,51.53 25.388,46.806 l 0.403,-2.154 c -4.947,-2.508 -8.439,-8.551 -8.439,-15.621 0,-9.313 6.058,-16.864 13.529,-16.864 5.292,0 9.86,3.798 12.081,9.319 C 34.694,24.146 28.6,33.02 28.6,43.532 c 0,6.115 2.065,11.827 5.569,16.017 -3.75,1.764 -9.246,4.477 -12.948,10.043 z M 48.305,84.093 H 47.952 23.248 c 0,-18.066 15.867,-18.062 19.388,-22.786 l 0.403,-2.154 C 38.092,56.645 34.6,50.602 34.6,43.532 c 0,-9.313 6.058,-16.864 13.529,-16.864 7.471,0 13.529,7.551 13.529,16.864 0,7.008 -3.43,13.015 -8.311,15.561 l 0.459,2.449 c 3.863,4.495 19.202,4.788 19.202,22.551 0,0 -24.703,0 -24.703,0 z M 75.036,69.592 c -3.702,-5.565 -9.199,-8.278 -12.948,-10.041 3.503,-4.197 5.57,-9.918 5.57,-16.019 0,-10.512 -6.093,-19.384 -14.359,-22.045 2.221,-5.522 6.79,-9.32 12.082,-9.32 7.472,0 13.529,7.551 13.529,16.864 0,7.009 -3.43,13.015 -8.311,15.562 l 0.459,2.449 c 3.863,4.495 19.202,4.788 19.202,22.55 z"
   id="path1551" />
</g>
<g
   id="g1555">
</g>
<g
   id="g1557">
</g>
<g
   id="g1559">
</g>
<g
   id="g1561">
</g>
<g
   id="g1563">
</g>
<g
   id="g1565">
</g>
<g
   id="g1567">
</g>
<g
   id="g1569">
</g>
<g
   id="g1571">
</g>
<g
   id="g1573">
</g>
<g
   id="g1575">
</g>
<g
   id="g1577">
</g>
<g
   id="g1579">
</g>
<g
   id="g1581">
</g>
<g
   id="g1583">
</g>
</svg>
