<?xml version="1.0" encoding="UTF-8" standalone="no"?>
<svg
   xmlns:dc="http://purl.org/dc/elements/1.1/"
   xmlns:cc="http://creativecommons.org/ns#"
   xmlns:rdf="http://www.w3.org/1999/02/22-rdf-syntax-ns#"
   xmlns:svg="http://www.w3.org/2000/svg"
   xmlns="http://www.w3.org/2000/svg"
   xmlns:xlink="http://www.w3.org/1999/xlink"
   xmlns:sodipodi="http://sodipodi.sourceforge.net/DTD/sodipodi-0.dtd"
   xmlns:inkscape="http://www.inkscape.org/namespaces/inkscape"
   version="1.0"
   width="32"
   height="32"
   viewBox="0 0 23.999999 23.999999"
   preserveAspectRatio="xMidYMid meet"
   id="svg20"
   sodipodi:docname="Dictatorship.svg"
   inkscape:version="1.0.1 (3bc2e813f5, 2020-09-07)">
  <defs
     id="defs24">
    <g
       id="cone">
      <polygon
         transform="rotate(18,3.1568758,-0.5)"
         points="0.5,1 0,0 0,1 "
         id="triangle" />
      <use
         id="use10"
         transform="scale(-1,1)"
         xlink:href="#triangle"
         x="0"
         y="0"
         width="100%"
         height="100%" />
    </g>
    <g
       fill="#ffffff"
       transform="matrix(300.3,0,0,300.3,1235,1050)"
       id="star">
      <use
         id="use13"
         xlink:href="#cone"
         x="0"
         y="0"
         width="100%"
         height="100%" />
      <use
         id="use15"
         transform="rotate(72)"
         xlink:href="#cone"
         x="0"
         y="0"
         width="100%"
         height="100%" />
      <use
         id="use17"
         transform="rotate(-72)"
         xlink:href="#cone"
         x="0"
         y="0"
         width="100%"
         height="100%" />
      <use
         id="use19"
         transform="rotate(144)"
         xlink:href="#cone"
         x="0"
         y="0"
         width="100%"
         height="100%" />
      <use
         id="use21"
         transform="rotate(-144)"
         xlink:href="#cone"
         x="0"
         y="0"
         width="100%"
         height="100%" />
    </g>
    <g
       id="even_star_row">
      <use
         xlink:href="#star"
         id="star 1 even row"
         x="0"
         y="0"
         width="100%"
         height="100%" />
      <use
         x="1235"
         xlink:href="#star"
         id="star 2 even row"
         y="0"
         width="100%"
         height="100%" />
      <use
         x="2470"
         xlink:href="#star"
         id="star 3 even row"
         y="0"
         width="100%"
         height="100%" />
      <use
         x="3705"
         xlink:href="#star"
         id="star 4 even row"
         y="0"
         width="100%"
         height="100%" />
      <use
         x="4940"
         xlink:href="#star"
         id="star 5 even row"
         y="0"
         width="100%"
         height="100%" />
    </g>
    <g
       id="odd_star_row">
      <use
         y="-525"
         x="617.5"
         xlink:href="#even_star_row"
         id="last 5 stars odd row"
         width="100%"
         height="100%" />
      <use
         y="-525"
         x="-617.5"
         xlink:href="#star"
         id="star 1 odd row"
         width="100%"
         height="100%" />
    </g>
  </defs>
  <sodipodi:namedview
     pagecolor="#ffffff"
     bordercolor="#666666"
     borderopacity="1"
     objecttolerance="10"
     gridtolerance="10"
     guidetolerance="10"
     inkscape:pageopacity="0"
     inkscape:pageshadow="2"
     inkscape:window-width="1858"
     inkscape:window-height="1057"
     id="namedview22"
     showgrid="false"
     inkscape:zoom="9.4015324"
     inkscape:cx="10.446095"
     inkscape:cy="20.172734"
     inkscape:window-x="54"
     inkscape:window-y="-8"
     inkscape:window-maximized="1"
     inkscape:current-layer="svg20"
     inkscape:document-rotation="0"
     units="px"
     inkscape:snap-bbox="true"
     inkscape:bbox-paths="true"
     inkscape:bbox-nodes="true"
     inkscape:snap-bbox-edge-midpoints="true"
     inkscape:snap-bbox-midpoints="true"
     inkscape:object-paths="true"
     inkscape:snap-intersection-paths="true"
     inkscape:snap-smooth-nodes="true"
     inkscape:snap-midpoints="true"
     inkscape:snap-object-midpoints="true"
     inkscape:snap-center="true"
     inkscape:snap-text-baseline="true"
     inkscape:snap-page="true" />
  <metadata
     id="metadata2">
Created by potrace 1.10, written by Peter Selinger 2001-2011
<rdf:RDF>
  <cc:Work
     rdf:about="">
    <dc:format>image/svg+xml</dc:format>
    <dc:type
       rdf:resource="http://purl.org/dc/dcmitype/StillImage" />
    <dc:title></dc:title>
  </cc:Work>
</rdf:RDF>
</metadata>
  <g
     style="fill:#ffffff"
     id="white stripes"
     transform="matrix(0.05384615,0,0,0.05384615,-883.23302,-179.46608)" />
  <rect
     style="fill:#ffffff;fill-opacity:1;fill-rule:evenodd;stroke-width:0.202623;stroke-linecap:butt;stroke-linejoin:miter;stroke-miterlimit:4;stroke-dasharray:none;stroke-dashoffset:0"
     id="rect2221"
     width="0"
     height="32.476742"
     x="-331.12842"
     y="-150.89632" />
  <rect
     style="fill:#ffffff;fill-opacity:1;fill-rule:evenodd;stroke-width:0.202623;stroke-linecap:butt;stroke-linejoin:miter;stroke-miterlimit:4;stroke-dasharray:none;stroke-dashoffset:0"
     id="rect2223"
     width="0"
     height="15.465115"
     x="-311.02377"
     y="-161.72189" />
  <path
     inkscape:connector-curvature="0"
     style="fill:#000000;fill-opacity:1;stroke:none;stroke-width:0;stroke-miterlimit:4;stroke-dasharray:none;stroke-opacity:1"
     d="m 8.4897801,23.982297 c -0.5922684,-0.02075 -0.7959044,-0.05175 -0.8241893,-0.125456 -0.042085,-0.109671 0.027701,-0.701944 0.28747,-2.439685 0.097347,-0.651221 0.2388798,-1.638498 0.3145119,-2.193951 0.075635,-0.555454 0.1862252,-1.300333 0.245764,-1.655284 0.059537,-0.354954 0.086249,-0.684046 0.059359,-0.731319 C 8.4396789,16.602751 7.7809364,15.618155 6.7677372,14.138804 4.8164166,11.289727 3.7634016,9.7231494 3.6450503,9.4931729 3.4632653,9.1399277 3.5055135,8.9887318 3.9670526,8.3407559 4.2057027,8.0057083 4.5419983,7.5264733 4.7143796,7.2757888 5.5800739,6.0168701 7.1382815,3.8221292 7.2687292,3.677988 7.3313817,3.6087567 7.4378405,3.5521124 7.5053074,3.5521124 c 0.1115468,0 4.2685126,1.8068343 5.0086986,2.1770412 0.198002,0.09903 0.335897,0.2238466 0.376726,0.340987 C 12.966682,6.28804 12.817652,7.4627393 12.69232,7.6341423 12.59681,7.7647549 12.322785,7.8214888 11.030616,7.9781819 9.7925944,8.1283104 9.6406892,8.0819115 8.9138344,7.3316391 8.6378039,7.0467156 8.3820882,6.8320575 8.3455822,6.8546214 8.2665557,6.9034617 8.4176634,7.5268256 8.563315,7.7528409 8.849307,8.1966306 8.7390593,8.4035859 8.1671579,8.4964985 7.7308102,8.567387 7.5653783,8.6603652 7.6779597,8.7714443 c 0.036391,0.035906 0.5572979,0.2506416 1.1575718,0.4771881 0.8072156,0.304648 1.137628,0.4644738 1.2688985,0.6137954 0.09762,0.1110419 0.178484,0.2209032 0.179693,0.2441362 0.0012,0.02323 0.15537,0.305313 0.342575,0.626843 2.882698,4.951108 2.817795,4.832777 2.765393,5.041561 -0.02635,0.105004 -0.203929,0.280037 -0.461676,0.455068 -0.230363,0.156439 -0.399328,0.316015 -0.375469,0.354614 0.02386,0.0386 0.204867,0.0604 0.402246,0.04844 l 0.358874,-0.02174 -0.01699,0.661668 c -0.0094,0.363918 -0.09599,1.617606 -0.192532,2.785971 -0.287587,3.480288 -0.310418,3.714087 -0.372511,3.814555 -0.05628,0.09106 -2.7668161,0.16051 -4.2442554,0.108747 z m 5.0526219,-0.01016 c -0.276742,-0.03184 -0.348249,-0.222787 -0.300309,-0.801891 0.141199,-1.705694 0.253649,-2.974192 0.285075,-3.215728 0.01993,-0.153228 0.09715,-0.934233 0.17158,-1.735569 0.07443,-0.801334 0.166846,-1.488491 0.205372,-1.527016 0.04696,-0.04696 0.174468,-0.04615 0.386883,0.0025 0.174258,0.03988 0.332244,0.04758 0.351076,0.01711 0.01883,-0.03047 -0.149161,-0.363215 -0.37331,-0.73944 -0.224153,-0.376257 -0.635962,-1.075856 -0.915133,-1.554694 -0.27917,-0.478839 -0.578082,-0.980314 -0.664252,-1.11439 -0.08617,-0.134075 -0.556605,-0.927536 -1.04542,-1.763248 -0.615432,-1.052194 -0.866467,-1.5417574 -0.816295,-1.5919287 0.05017,-0.050174 0.261878,-0.047257 0.688406,0.00947 0.49818,0.06626 0.795736,0.1624217 1.556223,0.5029147 1.500402,0.671785 1.541013,0.698115 2.341447,1.518238 0.494141,0.506293 0.799858,0.767355 0.898606,0.767355 0.16216,0 0.449759,-0.190434 1.769287,-1.171542 0.472922,-0.351636 0.887993,-0.639338 0.922366,-0.639338 0.138732,0 0.13013,0.245934 -0.04548,1.300119 -0.429775,2.57991 -0.930462,3.835616 -1.995074,5.003507 l -0.489155,0.536605 0.04106,3.013229 c 0.03761,2.759491 0.03127,3.021336 -0.07516,3.109506 -0.08971,0.07432 -0.411596,0.09627 -1.411222,0.09627 -0.71225,0 -1.381208,-0.0099 -1.486566,-0.02204 z M 15.622628,11.72976 c -0.509076,-0.544379 -0.607815,-0.685175 -0.557192,-0.794534 0.03383,-0.0731 0.346527,-0.44 0.694878,-0.81533 0.348353,-0.3753297 0.765779,-0.835671 0.927603,-1.0229816 0.16184,-0.1873098 0.338794,-0.3851054 0.393235,-0.4395452 0.05444,-0.054437 0.415367,-0.4551681 0.802062,-0.8905062 0.386707,-0.4353394 0.743342,-0.8069718 0.792533,-0.8258493 0.173314,-0.066507 1.779375,1.8178029 1.779375,2.0876545 0,0.09677 -0.222998,0.295286 -1.632779,1.4535498 -0.606133,0.497991 -1.372139,1.132425 -1.702232,1.409849 -0.33009,0.277425 -0.662864,0.503262 -0.739477,0.501863 -0.08419,-0.0015 -0.384081,-0.264312 -0.758006,-0.66417 z M 13.31863,10.265858 C 12.783738,10.017371 12.330691,9.7986551 12.311859,9.779822 12.216249,9.68421 12.570709,9.1602377 14.150652,7.0616938 16.098063,4.4750672 16.146933,4.4167437 16.29576,4.5018922 c 0.224487,0.1284252 2.000231,1.8994916 2.000231,1.9949514 0,0.1555481 -0.0744,0.2443481 -2.580694,3.0799329 -0.406306,0.4596855 -0.798054,0.9063115 -0.870554,0.9925025 -0.204005,0.242522 -0.460852,0.191456 -1.526113,-0.303421 z M 10.321148,9.1149865 C 9.150141,8.6751553 9.0003447,8.592417 9.0957196,8.4381519 c 0.047608,-0.076998 0.1302525,-0.078896 0.4594872,-0.010548 0.4376045,0.090847 0.8322212,0.059982 1.7758552,-0.1388909 1.282791,-0.2703525 1.378664,-0.2500398 1.144902,0.2425732 -0.148645,0.3132447 -0.800385,1.0121607 -0.938537,1.0064661 -0.05604,-0.00233 -0.603364,-0.1925548 -1.216279,-0.4227658 z m 2.856609,-2.45562 c 0.03066,-0.4906846 0.02327,-0.8400911 -0.0194,-0.9163278 C 13.120424,5.675268 12.732944,5.4444993 12.297286,5.230221 11.834011,5.002359 11.49652,4.7935797 11.484311,4.7272994 11.46423,4.6182636 13.081205,2.1081298 13.238933,2.0034834 13.47827,1.8446955 13.657264,1.9674244 14.731606,3.026961 l 1.091839,1.0767826 -0.11036,0.1972833 c -0.0607,0.108505 -0.499624,0.6974223 -0.975397,1.3087048 C 14.261916,6.2210156 13.748807,6.8857024 13.597456,7.086814 13.171633,7.6526223 13.11904,7.5990563 13.177753,6.6593665 Z M 10.773867,4.4715999 C 10.348953,4.3289064 8.2215652,3.3836504 8.1806639,3.3193684 8.1001151,3.1927769 8.0981859,3.1963378 8.6619798,2.4316989 8.9561111,2.0327883 9.4152049,1.4086566 9.6821947,1.044739 10.286797,0.22063684 10.489062,0 10.63994,0 c 0.139165,0 0.770802,0.45130472 1.581982,1.1303217 0.479969,0.4017718 0.570123,0.5088178 0.534114,0.6341949 -0.05655,0.1969154 -1.704598,2.6789507 -1.80255,2.7147239 -0.04132,0.015092 -0.122157,0.011654 -0.179619,-0.00764 z"
     id="path5187" />
</svg>
