<?xml version="1.0" encoding="UTF-8" standalone="no"?>
<svg
   xmlns:dc="http://purl.org/dc/elements/1.1/"
   xmlns:cc="http://creativecommons.org/ns#"
   xmlns:rdf="http://www.w3.org/1999/02/22-rdf-syntax-ns#"
   xmlns:svg="http://www.w3.org/2000/svg"
   xmlns="http://www.w3.org/2000/svg"
   xmlns:sodipodi="http://sodipodi.sourceforge.net/DTD/sodipodi-0.dtd"
   xmlns:inkscape="http://www.inkscape.org/namespaces/inkscape"
   width="32"
   height="32"
   viewBox="0 0 8.4666665 8.4666669"
   version="1.1"
   id="svg8"
   inkscape:version="1.0.1 (3bc2e813f5, 2020-09-07)"
   sodipodi:docname="Monarchy.svg">
  <defs
     id="defs2" />
  <sodipodi:namedview
     id="base"
     pagecolor="#ffffff"
     bordercolor="#666666"
     borderopacity="1.0"
     inkscape:pageopacity="0.0"
     inkscape:pageshadow="2"
     inkscape:zoom="11.313709"
     inkscape:cx="7.8136265"
     inkscape:cy="20.583069"
     inkscape:document-units="mm"
     inkscape:current-layer="layer1"
     inkscape:document-rotation="0"
     showgrid="false"
     units="px"
     inkscape:snap-bbox="true"
     inkscape:bbox-paths="true"
     inkscape:bbox-nodes="true"
     inkscape:snap-bbox-edge-midpoints="true"
     inkscape:snap-bbox-midpoints="true"
     inkscape:object-paths="true"
     inkscape:snap-intersection-paths="true"
     inkscape:snap-smooth-nodes="true"
     inkscape:snap-midpoints="true"
     inkscape:snap-object-midpoints="true"
     inkscape:snap-center="true"
     inkscape:snap-text-baseline="true"
     inkscape:snap-page="true"
     inkscape:window-width="1858"
     inkscape:window-height="1057"
     inkscape:window-x="54"
     inkscape:window-y="-8"
     inkscape:window-maximized="1" />
  <metadata
     id="metadata5">
    <rdf:RDF>
      <cc:Work
         rdf:about="">
        <dc:format>image/svg+xml</dc:format>
        <dc:type
           rdf:resource="http://purl.org/dc/dcmitype/StillImage" />
        <dc:title></dc:title>
      </cc:Work>
    </rdf:RDF>
  </metadata>
  <g
     inkscape:label="Layer 1"
     inkscape:groupmode="layer"
     id="layer1">
    <g
       id="g2751"
       transform="matrix(1.016294,0,0,1.016294,-0.06897802,-0.07077486)">
      <ellipse
         style="fill:#000000;fill-opacity:1;stroke:#dfda8f;stroke-width:0;stroke-linecap:round;stroke-linejoin:round"
         id="path847"
         cx="0.47685468"
         cy="2.2499554"
         rx="0.40898207"
         ry="0.42374676" />
      <circle
         style="fill:#000000;fill-opacity:1;stroke:#dfda8f;stroke-width:0;stroke-linecap:round;stroke-linejoin:round"
         id="path864"
         cx="1.9053499"
         cy="2.2635081"
         r="0.37584776" />
      <ellipse
         style="fill:#000000;fill-opacity:1;stroke:#dfda8f;stroke-width:0;stroke-linecap:round;stroke-linejoin:round"
         id="path866"
         cx="4.2333331"
         cy="0.91769439"
         rx="0.41760862"
         ry="0.43827918" />
      <path
         style="fill:#000000;fill-opacity:1;stroke:none;stroke-width:0.264583px;stroke-linecap:butt;stroke-linejoin:miter;stroke-opacity:1"
         d="M 0.53735333,2.6690404 1.3804535,6.6380225 c 0,0 0.9592096,0.511507 2.9177941,0.511507 1.9585845,0 -0.029233,-5.9216907 -0.029233,-5.9216907 L 4.0960702,1.331622 2.7550465,3.9946995 2.0666059,2.6030051 1.9387588,2.4787854 1.8781976,2.638374 1.716591,4.128966 0.67966373,2.6179317 0.52390073,2.4744005 Z"
         id="path868" />
      <ellipse
         style="fill:#000000;fill-opacity:1;stroke:#dfda8f;stroke-width:0;stroke-linecap:round;stroke-linejoin:round"
         id="path847-1"
         cx="-7.9898119"
         cy="2.2499559"
         rx="0.40898207"
         ry="0.42374676"
         transform="scale(-1,1)" />
      <path
         id="path870"
         style="fill:#000000;fill-opacity:1;stroke:none;stroke-width:0.264583px;stroke-linecap:butt;stroke-linejoin:miter;stroke-opacity:1"
         d="m 1.3540985,6.9381895 0.081649,0.65474 c 0,0 1.4645548,0.349482 2.587439,0.390157 5.292e-4,1.9e-5 0.00103,-1.8e-5 0.00156,0 0.054276,0.0046 0.1168477,0.0074 0.1881023,0.0077 0.00657,3.4e-5 0.014063,-5.29e-4 0.020672,-5.29e-4 0.0066,-7e-6 0.014105,5.56e-4 0.020672,5.29e-4 0.071254,-3.7e-4 0.1333095,-0.0031 0.1875854,-0.0077 5.82e-4,-5e-5 9.525e-4,5.1e-5 0.00156,0 1.1229179,-0.04063 2.5874406,-0.390157 2.5874406,-0.390157 l 0.081625,-0.65474 c 0,0 -1.9072254,0.455772 -2.878894,0.455786 -0.971669,1.3e-5 -2.8794113,-0.455786 -2.8794113,-0.455786 z"
         sodipodi:nodetypes="ccscscssccczc" />
      <circle
         style="fill:#000000;fill-opacity:1;stroke:#dfda8f;stroke-width:0;stroke-linecap:round;stroke-linejoin:round"
         id="path864-9"
         cx="-6.561317"
         cy="2.2635086"
         r="0.37584776"
         transform="scale(-1,1)" />
      <ellipse
         style="fill:#000000;fill-opacity:1;stroke:#dfda8f;stroke-width:0;stroke-linecap:round;stroke-linejoin:round"
         id="path866-5"
         cx="-4.2333331"
         cy="0.91769439"
         rx="0.41760862"
         ry="0.43827918"
         transform="scale(-1,1)" />
      <path
         style="fill:#000000;fill-opacity:1;stroke:none;stroke-width:0.264583px;stroke-linecap:butt;stroke-linejoin:miter;stroke-opacity:1"
         d="m 7.929314,2.6690403 -0.8431,3.9689822 c 0,0 -0.9592096,0.511506 -2.9177942,0.511506 -1.9585844,0 0.029233,-5.9216898 0.029233,-5.9216898 L 4.3705972,1.3316219 5.7116209,3.9946995 6.4000616,2.603005 6.5279087,2.4787853 6.5884699,2.6383739 6.7500765,4.1289659 7.7870036,2.6179316 7.9427666,2.4744004 Z"
         id="path868-7" />
    </g>
  </g>
</svg>
